<?xml version="1.0" encoding="utf-8"?>
<!-- Generator: Adobe Illustrator 24.3.1, SVG Export Plug-In . SVG Version: 6.00 Build 0)  -->
<svg version="1.1" id="Layer_1" xmlns="http://www.w3.org/2000/svg" xmlns:xlink="http://www.w3.org/1999/xlink" x="0px" y="0px"
	 viewBox="0 0 533.1 121" style="enable-background:new 0 0 533.1 121;" xml:space="preserve">
<style type="text/css">
	.st0{fill:#003057;}
	.st1{fill:#B3A369;}
</style>
<g>
	<path class="st0" d="M197,27c0.1,0.1,0.1,0.1,0.1,0.2v1.7c0,0.1-0.1,0.1-0.1,0.1h-1.3c-0.1,0-0.1-0.1-0.1-0.1v-0.8
		c0-0.1,0-0.1-0.1-0.1c-0.4-0.3-0.9-0.4-1.5-0.4c-1.2,0-1.7,0.5-2,1.3c-0.1,0.4-0.2,0.8-0.2,2.2c0,1.3,0.1,1.8,0.2,2.2
		c0.3,0.8,0.8,1.2,1.9,1.2c0.8,0,1.3-0.2,1.6-0.3c0.1-0.1,0.1-0.1,0.1-0.2V32c0-0.1,0-0.1-0.1-0.1H194c-0.1,0-0.1-0.1-0.1-0.1v-1.1
		c0-0.1,0.1-0.1,0.1-0.1h3.1c0.1,0,0.1,0.1,0.1,0.1v4c0,0.2,0,0.2-0.2,0.3c-0.8,0.5-1.8,0.9-3.1,0.9c-1.9,0-3.1-0.7-3.5-2.2
		c-0.2-0.6-0.2-1.2-0.2-2.7c0-1.5,0.1-2,0.3-2.6c0.5-1.5,1.7-2.3,3.7-2.3C195.2,26.1,196.3,26.5,197,27z"/>
	<path class="st0" d="M204.6,30.7c0.2,0.5,0.2,0.9,0.2,2c0,0.1-0.1,0.1-0.2,0.1h-4.2c-0.1,0-0.1,0-0.1,0.1c0,0.2,0,0.4,0.1,0.5
		c0.2,0.7,0.8,1,1.5,1s1.2-0.3,1.6-0.6c0.1-0.1,0.1-0.1,0.2,0l0.8,0.7c0.1,0.1,0.1,0.1,0,0.2c-0.6,0.7-1.5,1.1-2.8,1.1
		c-1.4,0-2.4-0.7-2.8-1.9c-0.1-0.4-0.2-1-0.2-1.7c0-0.7,0.1-1.2,0.2-1.7c0.4-1.2,1.4-1.9,2.8-1.9C203.2,28.9,204.2,29.6,204.6,30.7z
		 M200.5,31.1c-0.1,0.2-0.1,0.3-0.1,0.6c0,0.1,0,0.1,0.1,0.1h2.6c0.1,0,0.1,0,0.1-0.1c0-0.2,0-0.4-0.1-0.6c-0.2-0.5-0.7-0.9-1.3-0.9
		C201.2,30.2,200.7,30.5,200.5,31.1z"/>
	<path class="st0" d="M212,30.7c0.2,0.5,0.2,0.9,0.2,1.7c0,0.7-0.1,1.2-0.2,1.7c-0.4,1.2-1.4,1.9-2.8,1.9c-1.4,0-2.4-0.7-2.8-1.9
		c-0.2-0.5-0.2-0.9-0.2-1.7c0-0.7,0.1-1.2,0.2-1.7c0.4-1.2,1.4-1.9,2.8-1.9C210.6,28.9,211.6,29.6,212,30.7z M207.9,31.2
		c-0.1,0.4-0.1,0.7-0.1,1.2c0,0.6,0,0.9,0.1,1.2c0.2,0.6,0.6,0.9,1.3,0.9s1.1-0.3,1.3-0.9c0.1-0.4,0.1-0.7,0.1-1.2
		c0-0.6,0-0.9-0.1-1.2c-0.2-0.6-0.6-0.9-1.3-0.9S208.1,30.6,207.9,31.2z"/>
	<path class="st0" d="M218.2,29c0.1,0,0.1,0.1,0.1,0.1v1.2c0,0.1-0.1,0.2-0.2,0.1c-0.2,0-0.5-0.1-0.8-0.1c-1,0-1.5,0.5-1.5,1.7v2.2
		c0,0.1,0,0.1,0.1,0.1h0.7c0.1,0,0.1,0.1,0.1,0.1v1.1c0,0.1-0.1,0.1-0.1,0.1h-3c-0.1,0-0.1-0.1-0.1-0.1v-1.1c0-0.1,0.1-0.1,0.1-0.1
		h0.6c0.1,0,0.1,0,0.1-0.1v-3.8c0-0.1,0-0.1-0.1-0.1h-0.6c-0.1,0-0.1-0.1-0.1-0.1v-1.1c0-0.1,0.1-0.1,0.1-0.1h2.1
		c0.1,0,0.1,0.1,0.1,0.1v0.7h0c0.3-0.5,0.8-0.9,1.7-0.9C217.8,28.9,218.1,29,218.2,29z"/>
	<path class="st0" d="M223.6,29.7L223.6,29.7l0-0.5c0-0.1,0.1-0.1,0.1-0.1h2.1c0.1,0,0.1,0.1,0.1,0.1v1.1c0,0.1-0.1,0.1-0.1,0.1
		h-0.6c-0.1,0-0.1,0-0.1,0.1v4.9c0,1.9-1.1,3.1-3.2,3.1c-0.9,0-1.9-0.4-2.5-1c-0.1-0.1-0.1-0.1,0-0.2l0.8-0.8c0.1-0.1,0.1-0.1,0.2,0
		c0.4,0.4,0.9,0.6,1.5,0.6c1,0,1.5-0.6,1.5-1.6v-0.6h0c-0.3,0.5-0.9,0.8-1.8,0.8c-1.1,0-1.9-0.6-2.3-1.6c-0.2-0.5-0.2-1-0.2-1.7
		c0-0.7,0.1-1.2,0.2-1.7c0.4-1.1,1.2-1.7,2.3-1.7C222.8,28.9,223.3,29.2,223.6,29.7z M221.1,31.1c-0.1,0.3-0.2,0.7-0.2,1.1
		c0,0.5,0,0.8,0.2,1.1c0.2,0.6,0.6,0.9,1.2,0.9c0.6,0,1-0.3,1.2-0.9c0.1-0.3,0.2-0.6,0.2-1.1c0-0.4,0-0.8-0.2-1.1
		c-0.2-0.5-0.6-0.9-1.2-0.9C221.7,30.3,221.3,30.6,221.1,31.1z"/>
	<path class="st0" d="M229.4,29c0.1,0,0.1,0.1,0.1,0.1v5.2c0,0.1,0,0.1,0.1,0.1h0.6c0.1,0,0.1,0.1,0.1,0.1v1.1
		c0,0.1-0.1,0.1-0.1,0.1h-2.9c-0.1,0-0.1-0.1-0.1-0.1v-1.1c0-0.1,0.1-0.1,0.1-0.1h0.6c0.1,0,0.1,0,0.1-0.1v-3.8c0-0.1,0-0.1-0.1-0.1
		h-0.6c-0.1,0-0.1-0.1-0.1-0.1v-1.1c0-0.1,0.1-0.1,0.1-0.1H229.4z M229.4,26.3c0.1,0,0.1,0.1,0.1,0.1v1.2c0,0.1-0.1,0.1-0.1,0.1
		h-1.3c-0.1,0-0.1-0.1-0.1-0.1v-1.2c0-0.1,0.1-0.1,0.1-0.1H229.4z"/>
	<path class="st0" d="M237.1,31.2v3.1c0,0.1,0,0.1,0.1,0.1h0.6c0.1,0,0.1,0.1,0.1,0.1v1.1c0,0.1-0.1,0.1-0.1,0.1h-2
		c-0.1,0-0.1-0.1-0.1-0.1v-0.5h0c-0.3,0.5-0.9,0.8-1.9,0.8c-1.2,0-2.3-0.7-2.3-2.1c0-1.5,1-2.2,2.7-2.2h1.3c0.1,0,0.1,0,0.1-0.1
		v-0.3c0-0.8-0.3-1.2-1.4-1.2c-0.2,0-0.5,0-0.7,0.1c-0.1,0-0.1,0-0.1,0.1V31c0,0.1-0.1,0.1-0.1,0.1h-1.2c-0.1,0-0.1-0.1-0.1-0.1
		v-1.4c0-0.1,0-0.1,0.1-0.2c0.6-0.3,1.4-0.5,2.3-0.5C236.4,28.9,237.1,29.6,237.1,31.2z M234.5,32.9c-1,0-1.4,0.3-1.4,0.9
		c0,0.6,0.4,0.9,1.1,0.9c1,0,1.5-0.4,1.5-1.1V33c0-0.1,0-0.1-0.1-0.1H234.5z"/>
	<path class="st0" d="M249.7,26.3c0.1,0,0.1,0.1,0.1,0.1v2.2c0,0.1-0.1,0.1-0.1,0.1h-1.2c-0.1,0-0.1-0.1-0.1-0.1v-0.8
		c0-0.1,0-0.1-0.1-0.1h-1.4c-0.1,0-0.1,0-0.1,0.1v6.5c0,0.1,0,0.1,0.1,0.1h0.7c0.1,0,0.1,0.1,0.1,0.1v1.1c0,0.1-0.1,0.1-0.1,0.1
		h-3.3c-0.1,0-0.1-0.1-0.1-0.1v-1.1c0-0.1,0.1-0.1,0.1-0.1h0.7c0.1,0,0.1,0,0.1-0.1v-6.5c0-0.1,0-0.1-0.1-0.1h-1.4
		c-0.1,0-0.1,0-0.1,0.1v0.8c0,0.1-0.1,0.1-0.1,0.1h-1.2c-0.1,0-0.1-0.1-0.1-0.1v-2.2c0-0.1,0.1-0.1,0.1-0.1H249.7z"/>
	<path class="st0" d="M255.2,30.7c0.2,0.5,0.2,0.9,0.2,2c0,0.1-0.1,0.1-0.2,0.1h-4.2c-0.1,0-0.1,0-0.1,0.1c0,0.2,0,0.4,0.1,0.5
		c0.2,0.7,0.8,1,1.5,1s1.2-0.3,1.6-0.6c0.1-0.1,0.1-0.1,0.2,0l0.8,0.7c0.1,0.1,0.1,0.1,0,0.2c-0.6,0.7-1.5,1.1-2.8,1.1
		c-1.4,0-2.4-0.7-2.8-1.9c-0.1-0.4-0.2-1-0.2-1.7c0-0.7,0.1-1.2,0.2-1.7c0.4-1.2,1.4-1.9,2.8-1.9C253.8,28.9,254.9,29.6,255.2,30.7z
		 M251.1,31.1c-0.1,0.2-0.1,0.3-0.1,0.6c0,0.1,0,0.1,0.1,0.1h2.6c0.1,0,0.1,0,0.1-0.1c0-0.2,0-0.4-0.1-0.6c-0.2-0.5-0.7-0.9-1.3-0.9
		C251.8,30.2,251.3,30.5,251.1,31.1z"/>
	<path class="st0" d="M262.2,29.4c0.1,0,0.1,0.1,0.1,0.2v1.5c0,0.1-0.1,0.1-0.1,0.1H261c-0.1,0-0.1-0.1-0.1-0.1v-0.6
		c0-0.1,0-0.1-0.1-0.1c-0.1-0.1-0.5-0.1-0.9-0.1c-0.7,0-1.2,0.3-1.4,0.9c-0.1,0.3-0.1,0.7-0.1,1.2c0,0.5,0,0.9,0.1,1.3
		c0.2,0.6,0.7,0.9,1.4,0.9c0.4,0,0.7-0.1,0.9-0.1c0.1,0,0.1,0,0.1-0.1v-0.6c0-0.1,0.1-0.1,0.1-0.1h1.2c0.1,0,0.1,0.1,0.1,0.1v1.6
		c0,0.1,0,0.1-0.1,0.2c-0.6,0.3-1.4,0.5-2.3,0.5c-1.5,0-2.5-0.6-2.9-1.8c-0.1-0.4-0.2-1-0.2-1.7c0-0.7,0.1-1.2,0.2-1.7
		c0.4-1.2,1.4-1.9,2.9-1.9C260.8,28.9,261.7,29.1,262.2,29.4z"/>
	<path class="st0" d="M266,26.3c0.1,0,0.1,0.1,0.1,0.1v3.3h0c0.3-0.4,0.9-0.8,1.8-0.8c1.4,0,2.3,1.1,2.3,2.5v2.9
		c0,0.1,0,0.1,0.1,0.1h0.6c0.1,0,0.1,0.1,0.1,0.1v1.1c0,0.1-0.1,0.1-0.1,0.1h-2.9c-0.1,0-0.1-0.1-0.1-0.1v-1.1
		c0-0.1,0.1-0.1,0.1-0.1h0.6c0.1,0,0.1,0,0.1-0.1v-2.6c0-0.9-0.4-1.5-1.3-1.5c-0.8,0-1.3,0.6-1.3,1.5v2.6c0,0.1,0,0.1,0.1,0.1h0.6
		c0.1,0,0.1,0.1,0.1,0.1v1.1c0,0.1-0.1,0.1-0.1,0.1h-2.9c-0.1,0-0.1-0.1-0.1-0.1v-1.1c0-0.1,0.1-0.1,0.1-0.1h0.6
		c0.1,0,0.1,0,0.1-0.1v-6.6c0-0.1,0-0.1-0.1-0.1h-0.6c-0.1,0-0.1-0.1-0.1-0.1v-1.1c0-0.1,0.1-0.1,0.1-0.1H266z"/>
	<path class="st0" d="M282.3,26.8c0.1,0.1,0.1,0.1,0.1,0.2v1.9c0,0.1-0.1,0.1-0.1,0.1H281c-0.1,0-0.1-0.1-0.1-0.1v-1
		c0-0.1,0-0.1-0.1-0.1c-0.3-0.1-0.8-0.3-1.2-0.3c-1.2,0-1.7,0.5-1.9,1.3c-0.1,0.4-0.2,0.8-0.2,2.2c0,1.4,0,1.8,0.2,2.2
		c0.3,0.8,0.7,1.3,2,1.3c0.5,0,0.9-0.1,1.2-0.2c0.1,0,0.1-0.1,0.1-0.1v-1c0-0.1,0.1-0.1,0.1-0.1h1.3c0.1,0,0.1,0.1,0.1,0.1V35
		c0,0.1,0,0.1-0.1,0.2c-0.7,0.4-1.5,0.7-2.9,0.7c-1.8,0-2.9-0.7-3.4-2.2c-0.2-0.6-0.2-1.2-0.2-2.7c0-1.5,0-2,0.2-2.6
		c0.5-1.6,1.7-2.3,3.4-2.3C280.6,26.1,281.6,26.4,282.3,26.8z"/>
	<path class="st0" d="M289.6,30.7c0.2,0.5,0.2,0.9,0.2,1.7c0,0.7-0.1,1.2-0.2,1.7c-0.4,1.2-1.4,1.9-2.8,1.9c-1.4,0-2.4-0.7-2.8-1.9
		c-0.2-0.5-0.2-0.9-0.2-1.7c0-0.7,0.1-1.2,0.2-1.7c0.4-1.2,1.4-1.9,2.8-1.9C288.2,28.9,289.2,29.6,289.6,30.7z M285.6,31.2
		c-0.1,0.4-0.1,0.7-0.1,1.2c0,0.6,0,0.9,0.1,1.2c0.2,0.6,0.6,0.9,1.3,0.9s1.1-0.3,1.3-0.9c0.1-0.4,0.1-0.7,0.1-1.2
		c0-0.6,0-0.9-0.1-1.2c-0.2-0.6-0.6-0.9-1.3-0.9S285.7,30.6,285.6,31.2z"/>
	<path class="st0" d="M293.1,26.3c0.1,0,0.1,0.1,0.1,0.1v7.4c0,0.5,0.2,0.6,0.6,0.6h0.3c0.1,0,0.1,0.1,0.1,0.1v1.1
		c0,0.1-0.1,0.1-0.1,0.1h-0.6c-1.3,0-1.8-0.7-1.8-2v-6.1c0-0.1,0-0.1-0.1-0.1H291c-0.1,0-0.1-0.1-0.1-0.1v-1.1
		c0-0.1,0.1-0.1,0.1-0.1H293.1z"/>
	<path class="st0" d="M297.3,26.3c0.1,0,0.1,0.1,0.1,0.1v7.4c0,0.5,0.2,0.6,0.6,0.6h0.3c0.1,0,0.1,0.1,0.1,0.1v1.1
		c0,0.1-0.1,0.1-0.1,0.1h-0.6c-1.3,0-1.8-0.7-1.8-2v-6.1c0-0.1,0-0.1-0.1-0.1h-0.6c-0.1,0-0.1-0.1-0.1-0.1v-1.1
		c0-0.1,0.1-0.1,0.1-0.1H297.3z"/>
	<path class="st0" d="M305.4,30.7c0.2,0.5,0.2,0.9,0.2,2c0,0.1-0.1,0.1-0.2,0.1h-4.2c-0.1,0-0.1,0-0.1,0.1c0,0.2,0,0.4,0.1,0.5
		c0.2,0.7,0.8,1,1.5,1s1.2-0.3,1.6-0.6c0.1-0.1,0.1-0.1,0.2,0l0.8,0.7c0.1,0.1,0.1,0.1,0,0.2c-0.6,0.7-1.5,1.1-2.8,1.1
		c-1.4,0-2.4-0.7-2.8-1.9c-0.1-0.4-0.2-1-0.2-1.7c0-0.7,0.1-1.2,0.2-1.7c0.4-1.2,1.4-1.9,2.8-1.9C304,28.9,305,29.6,305.4,30.7z
		 M301.3,31.1c-0.1,0.2-0.1,0.3-0.1,0.6c0,0.1,0,0.1,0.1,0.1h2.6c0.1,0,0.1,0,0.1-0.1c0-0.2,0-0.4-0.1-0.6c-0.2-0.5-0.7-0.9-1.3-0.9
		C302,30.2,301.5,30.5,301.3,31.1z"/>
	<path class="st0" d="M311.2,29.7L311.2,29.7l0-0.5c0-0.1,0.1-0.1,0.1-0.1h2.1c0.1,0,0.1,0.1,0.1,0.1v1.1c0,0.1-0.1,0.1-0.1,0.1
		h-0.6c-0.1,0-0.1,0-0.1,0.1v4.9c0,1.9-1.1,3.1-3.2,3.1c-0.9,0-1.9-0.4-2.5-1c-0.1-0.1-0.1-0.1,0-0.2l0.8-0.8c0.1-0.1,0.1-0.1,0.2,0
		c0.4,0.4,0.9,0.6,1.5,0.6c1,0,1.5-0.6,1.5-1.6v-0.6h0c-0.3,0.5-0.9,0.8-1.8,0.8c-1.1,0-1.9-0.6-2.3-1.6c-0.2-0.5-0.2-1-0.2-1.7
		c0-0.7,0.1-1.2,0.2-1.7c0.4-1.1,1.2-1.7,2.3-1.7C310.4,28.9,310.9,29.2,311.2,29.7z M308.7,31.1c-0.1,0.3-0.2,0.7-0.2,1.1
		c0,0.5,0,0.8,0.2,1.1c0.2,0.6,0.6,0.9,1.2,0.9c0.6,0,1-0.3,1.2-0.9c0.1-0.3,0.2-0.6,0.2-1.1c0-0.4,0-0.8-0.2-1.1
		c-0.2-0.5-0.6-0.9-1.2-0.9C309.3,30.3,308.9,30.6,308.7,31.1z"/>
	<path class="st0" d="M320.7,30.7c0.2,0.5,0.2,0.9,0.2,2c0,0.1-0.1,0.1-0.2,0.1h-4.2c-0.1,0-0.1,0-0.1,0.1c0,0.2,0,0.4,0.1,0.5
		c0.2,0.7,0.8,1,1.5,1s1.2-0.3,1.6-0.6c0.1-0.1,0.1-0.1,0.2,0l0.8,0.7c0.1,0.1,0.1,0.1,0,0.2c-0.6,0.7-1.5,1.1-2.8,1.1
		c-1.4,0-2.4-0.7-2.8-1.9c-0.1-0.4-0.2-1-0.2-1.7c0-0.7,0.1-1.2,0.2-1.7c0.4-1.2,1.4-1.9,2.8-1.9C319.3,28.9,320.3,29.6,320.7,30.7z
		 M316.6,31.1c-0.1,0.2-0.1,0.3-0.1,0.6c0,0.1,0,0.1,0.1,0.1h2.6c0.1,0,0.1,0,0.1-0.1c0-0.2,0-0.4-0.1-0.6c-0.2-0.5-0.7-0.9-1.3-0.9
		C317.2,30.2,316.7,30.5,316.6,31.1z"/>
	<path class="st0" d="M331.5,30.7c0.2,0.5,0.2,0.9,0.2,1.7c0,0.7-0.1,1.2-0.2,1.7c-0.4,1.2-1.4,1.9-2.8,1.9c-1.4,0-2.4-0.7-2.8-1.9
		c-0.2-0.5-0.2-0.9-0.2-1.7c0-0.7,0.1-1.2,0.2-1.7c0.4-1.2,1.4-1.9,2.8-1.9C330.1,28.9,331.1,29.6,331.5,30.7z M327.4,31.2
		c-0.1,0.4-0.1,0.7-0.1,1.2c0,0.6,0,0.9,0.1,1.2c0.2,0.6,0.6,0.9,1.3,0.9s1.1-0.3,1.3-0.9c0.1-0.4,0.1-0.7,0.1-1.2
		c0-0.6,0-0.9-0.1-1.2c-0.2-0.6-0.6-0.9-1.3-0.9S327.6,30.6,327.4,31.2z"/>
	<path class="st0" d="M336.6,26.3c0.1,0,0.1,0.1,0.1,0.1v1.1c0,0.1-0.1,0.1-0.1,0.1h-0.4c-0.7,0-0.9,0.2-0.9,0.8v0.5
		c0,0.1,0,0.1,0.1,0.1h1.2c0.1,0,0.1,0.1,0.1,0.1v1.1c0,0.1-0.1,0.1-0.1,0.1h-1.2c-0.1,0-0.1,0-0.1,0.1v3.8c0,0.1,0,0.1,0.1,0.1h0.7
		c0.1,0,0.1,0.1,0.1,0.1v1.1c0,0.1-0.1,0.1-0.1,0.1h-3.1c-0.1,0-0.1-0.1-0.1-0.1v-1.1c0-0.1,0.1-0.1,0.1-0.1h0.6
		c0.1,0,0.1,0,0.1-0.1v-3.8c0-0.1,0-0.1-0.1-0.1h-0.4c-0.1,0-0.1-0.1-0.1-0.1v-1.1c0-0.1,0.1-0.1,0.1-0.1h0.4c0.1,0,0.1,0,0.1-0.1
		v-0.4c0-1.6,0.8-2.3,2.2-2.3H336.6z"/>
	<path class="st0" d="M348.1,26.3c0.1,0,0.1,0.1,0.1,0.1v2.2c0,0.1-0.1,0.1-0.1,0.1h-1.2c-0.1,0-0.1-0.1-0.1-0.1v-0.8
		c0-0.1,0-0.1-0.1-0.1h-2.8c-0.1,0-0.1,0-0.1,0.1v2.4c0,0.1,0,0.1,0.1,0.1h1.9c0.1,0,0.1,0,0.1-0.1v-0.5c0-0.1,0.1-0.1,0.1-0.1h1.2
		c0.1,0,0.1,0.1,0.1,0.1v2.6c0,0.1-0.1,0.1-0.1,0.1H346c-0.1,0-0.1-0.1-0.1-0.1v-0.5c0-0.1,0-0.1-0.1-0.1h-1.9c-0.1,0-0.1,0-0.1,0.1
		v2.5c0,0.1,0,0.1,0.1,0.1h2.8c0.1,0,0.1,0,0.1-0.1v-0.8c0-0.1,0.1-0.1,0.1-0.1h1.2c0.1,0,0.1,0.1,0.1,0.1v2.2
		c0,0.1-0.1,0.1-0.1,0.1h-6.8c-0.1,0-0.1-0.1-0.1-0.1v-1.1c0-0.1,0.1-0.1,0.1-0.1h0.7c0.1,0,0.1,0,0.1-0.1v-6.6c0-0.1,0-0.1-0.1-0.1
		h-0.7c-0.1,0-0.1-0.1-0.1-0.1v-1.1c0-0.1,0.1-0.1,0.1-0.1H348.1z"/>
	<path class="st0" d="M356,31.4v2.9c0,0.1,0,0.1,0.1,0.1h0.6c0.1,0,0.1,0.1,0.1,0.1v1.1c0,0.1-0.1,0.1-0.1,0.1h-2.9
		c-0.1,0-0.1-0.1-0.1-0.1v-1.1c0-0.1,0.1-0.1,0.1-0.1h0.6c0.1,0,0.1,0,0.1-0.1v-2.6c0-0.9-0.4-1.5-1.3-1.5c-0.8,0-1.3,0.6-1.3,1.5
		v2.6c0,0.1,0,0.1,0.1,0.1h0.6c0.1,0,0.1,0.1,0.1,0.1v1.1c0,0.1-0.1,0.1-0.1,0.1h-2.9c-0.1,0-0.1-0.1-0.1-0.1v-1.1
		c0-0.1,0.1-0.1,0.1-0.1h0.6c0.1,0,0.1,0,0.1-0.1v-3.8c0-0.1,0-0.1-0.1-0.1h-0.6c-0.1,0-0.1-0.1-0.1-0.1v-1.1c0-0.1,0.1-0.1,0.1-0.1
		h2.1c0.1,0,0.1,0.1,0.1,0.1v0.5h0c0.3-0.4,0.9-0.8,1.7-0.8C355.1,28.9,356,29.9,356,31.4z"/>
	<path class="st0" d="M362.3,29.7L362.3,29.7l0-0.5c0-0.1,0.1-0.1,0.1-0.1h2.1c0.1,0,0.1,0.1,0.1,0.1v1.1c0,0.1-0.1,0.1-0.1,0.1H364
		c-0.1,0-0.1,0-0.1,0.1v4.9c0,1.9-1.1,3.1-3.2,3.1c-0.9,0-1.9-0.4-2.5-1c-0.1-0.1-0.1-0.1,0-0.2l0.8-0.8c0.1-0.1,0.1-0.1,0.2,0
		c0.4,0.4,0.9,0.6,1.5,0.6c1,0,1.5-0.6,1.5-1.6v-0.6h0c-0.3,0.5-0.9,0.8-1.8,0.8c-1.1,0-1.9-0.6-2.3-1.6c-0.2-0.5-0.2-1-0.2-1.7
		c0-0.7,0.1-1.2,0.2-1.7c0.4-1.1,1.2-1.7,2.3-1.7C361.4,28.9,362,29.2,362.3,29.7z M359.8,31.1c-0.1,0.3-0.2,0.7-0.2,1.1
		c0,0.5,0,0.8,0.2,1.1c0.2,0.6,0.6,0.9,1.2,0.9c0.6,0,1-0.3,1.2-0.9c0.1-0.3,0.2-0.6,0.2-1.1c0-0.4,0-0.8-0.2-1.1
		c-0.2-0.5-0.6-0.9-1.2-0.9C360.3,30.3,359.9,30.6,359.8,31.1z"/>
	<path class="st0" d="M368.1,29c0.1,0,0.1,0.1,0.1,0.1v5.2c0,0.1,0,0.1,0.1,0.1h0.6c0.1,0,0.1,0.1,0.1,0.1v1.1
		c0,0.1-0.1,0.1-0.1,0.1H366c-0.1,0-0.1-0.1-0.1-0.1v-1.1c0-0.1,0.1-0.1,0.1-0.1h0.6c0.1,0,0.1,0,0.1-0.1v-3.8c0-0.1,0-0.1-0.1-0.1
		H366c-0.1,0-0.1-0.1-0.1-0.1v-1.1c0-0.1,0.1-0.1,0.1-0.1H368.1z M368.1,26.3c0.1,0,0.1,0.1,0.1,0.1v1.2c0,0.1-0.1,0.1-0.1,0.1h-1.3
		c-0.1,0-0.1-0.1-0.1-0.1v-1.2c0-0.1,0.1-0.1,0.1-0.1H368.1z"/>
	<path class="st0" d="M376.6,31.4v2.9c0,0.1,0,0.1,0.1,0.1h0.6c0.1,0,0.1,0.1,0.1,0.1v1.1c0,0.1-0.1,0.1-0.1,0.1h-2.9
		c-0.1,0-0.1-0.1-0.1-0.1v-1.1c0-0.1,0.1-0.1,0.1-0.1h0.6c0.1,0,0.1,0,0.1-0.1v-2.6c0-0.9-0.4-1.5-1.3-1.5c-0.8,0-1.3,0.6-1.3,1.5
		v2.6c0,0.1,0,0.1,0.1,0.1h0.6c0.1,0,0.1,0.1,0.1,0.1v1.1c0,0.1-0.1,0.1-0.1,0.1h-2.9c-0.1,0-0.1-0.1-0.1-0.1v-1.1
		c0-0.1,0.1-0.1,0.1-0.1h0.6c0.1,0,0.1,0,0.1-0.1v-3.8c0-0.1,0-0.1-0.1-0.1h-0.6c-0.1,0-0.1-0.1-0.1-0.1v-1.1c0-0.1,0.1-0.1,0.1-0.1
		h2.1c0.1,0,0.1,0.1,0.1,0.1v0.5h0c0.3-0.4,0.9-0.8,1.7-0.8C375.7,28.9,376.6,29.9,376.6,31.4z"/>
	<path class="st0" d="M384.3,30.7c0.2,0.5,0.2,0.9,0.2,2c0,0.1-0.1,0.1-0.2,0.1h-4.2c-0.1,0-0.1,0-0.1,0.1c0,0.2,0,0.4,0.1,0.5
		c0.2,0.7,0.8,1,1.5,1s1.2-0.3,1.6-0.6c0.1-0.1,0.1-0.1,0.2,0l0.8,0.7c0.1,0.1,0.1,0.1,0,0.2c-0.6,0.7-1.5,1.1-2.8,1.1
		c-1.4,0-2.4-0.7-2.8-1.9c-0.1-0.4-0.2-1-0.2-1.7c0-0.7,0.1-1.2,0.2-1.7c0.4-1.2,1.4-1.9,2.8-1.9C382.9,28.9,383.9,29.6,384.3,30.7z
		 M380.2,31.1c-0.1,0.2-0.1,0.3-0.1,0.6c0,0.1,0,0.1,0.1,0.1h2.6c0.1,0,0.1,0,0.1-0.1c0-0.2,0-0.4-0.1-0.6c-0.2-0.5-0.7-0.9-1.3-0.9
		C380.9,30.2,380.4,30.5,380.2,31.1z"/>
	<path class="st0" d="M391.7,30.7c0.2,0.5,0.2,0.9,0.2,2c0,0.1-0.1,0.1-0.2,0.1h-4.2c-0.1,0-0.1,0-0.1,0.1c0,0.2,0,0.4,0.1,0.5
		c0.2,0.7,0.8,1,1.5,1s1.2-0.3,1.6-0.6c0.1-0.1,0.1-0.1,0.2,0l0.8,0.7c0.1,0.1,0.1,0.1,0,0.2c-0.6,0.7-1.5,1.1-2.8,1.1
		c-1.4,0-2.4-0.7-2.8-1.9c-0.1-0.4-0.2-1-0.2-1.7c0-0.7,0.1-1.2,0.2-1.7c0.4-1.2,1.4-1.9,2.8-1.9C390.3,28.9,391.3,29.6,391.7,30.7z
		 M387.6,31.1c-0.1,0.2-0.1,0.3-0.1,0.6c0,0.1,0,0.1,0.1,0.1h2.6c0.1,0,0.1,0,0.1-0.1c0-0.2,0-0.4-0.1-0.6c-0.2-0.5-0.7-0.9-1.3-0.9
		C388.3,30.2,387.8,30.5,387.6,31.1z"/>
	<path class="st0" d="M397.9,29c0.1,0,0.1,0.1,0.1,0.1v1.2c0,0.1-0.1,0.2-0.2,0.1c-0.2,0-0.5-0.1-0.8-0.1c-1,0-1.5,0.5-1.5,1.7v2.2
		c0,0.1,0,0.1,0.1,0.1h0.7c0.1,0,0.1,0.1,0.1,0.1v1.1c0,0.1-0.1,0.1-0.1,0.1h-3c-0.1,0-0.1-0.1-0.1-0.1v-1.1c0-0.1,0.1-0.1,0.1-0.1
		h0.6c0.1,0,0.1,0,0.1-0.1v-3.8c0-0.1,0-0.1-0.1-0.1h-0.6c-0.1,0-0.1-0.1-0.1-0.1v-1.1c0-0.1,0.1-0.1,0.1-0.1h2.1
		c0.1,0,0.1,0.1,0.1,0.1v0.7h0c0.3-0.5,0.8-0.9,1.7-0.9C397.5,28.9,397.8,29,397.9,29z"/>
	<path class="st0" d="M401.3,29c0.1,0,0.1,0.1,0.1,0.1v5.2c0,0.1,0,0.1,0.1,0.1h0.6c0.1,0,0.1,0.1,0.1,0.1v1.1
		c0,0.1-0.1,0.1-0.1,0.1h-2.9c-0.1,0-0.1-0.1-0.1-0.1v-1.1c0-0.1,0.1-0.1,0.1-0.1h0.6c0.1,0,0.1,0,0.1-0.1v-3.8c0-0.1,0-0.1-0.1-0.1
		h-0.6c-0.1,0-0.1-0.1-0.1-0.1v-1.1c0-0.1,0.1-0.1,0.1-0.1H401.3z M401.3,26.3c0.1,0,0.1,0.1,0.1,0.1v1.2c0,0.1-0.1,0.1-0.1,0.1H400
		c-0.1,0-0.1-0.1-0.1-0.1v-1.2c0-0.1,0.1-0.1,0.1-0.1H401.3z"/>
	<path class="st0" d="M409.8,31.4v2.9c0,0.1,0,0.1,0.1,0.1h0.6c0.1,0,0.1,0.1,0.1,0.1v1.1c0,0.1-0.1,0.1-0.1,0.1h-2.9
		c-0.1,0-0.1-0.1-0.1-0.1v-1.1c0-0.1,0.1-0.1,0.1-0.1h0.6c0.1,0,0.1,0,0.1-0.1v-2.6c0-0.9-0.4-1.5-1.3-1.5c-0.8,0-1.3,0.6-1.3,1.5
		v2.6c0,0.1,0,0.1,0.1,0.1h0.6c0.1,0,0.1,0.1,0.1,0.1v1.1c0,0.1-0.1,0.1-0.1,0.1h-2.9c-0.1,0-0.1-0.1-0.1-0.1v-1.1
		c0-0.1,0.1-0.1,0.1-0.1h0.6c0.1,0,0.1,0,0.1-0.1v-3.8c0-0.1,0-0.1-0.1-0.1h-0.6c-0.1,0-0.1-0.1-0.1-0.1v-1.1c0-0.1,0.1-0.1,0.1-0.1
		h2.1c0.1,0,0.1,0.1,0.1,0.1v0.5h0c0.3-0.4,0.9-0.8,1.7-0.8C408.9,28.9,409.8,29.9,409.8,31.4z"/>
	<path class="st0" d="M416.1,29.7L416.1,29.7l0-0.5c0-0.1,0.1-0.1,0.1-0.1h2.1c0.1,0,0.1,0.1,0.1,0.1v1.1c0,0.1-0.1,0.1-0.1,0.1
		h-0.6c-0.1,0-0.1,0-0.1,0.1v4.9c0,1.9-1.1,3.1-3.2,3.1c-0.9,0-1.9-0.4-2.5-1c-0.1-0.1-0.1-0.1,0-0.2l0.8-0.8c0.1-0.1,0.1-0.1,0.2,0
		c0.4,0.4,0.9,0.6,1.5,0.6c1,0,1.5-0.6,1.5-1.6v-0.6h0c-0.3,0.5-0.9,0.8-1.8,0.8c-1.1,0-1.9-0.6-2.3-1.6c-0.2-0.5-0.2-1-0.2-1.7
		c0-0.7,0.1-1.2,0.2-1.7c0.4-1.1,1.2-1.7,2.3-1.7C415.2,28.9,415.8,29.2,416.1,29.7z M413.6,31.1c-0.1,0.3-0.2,0.7-0.2,1.1
		c0,0.5,0,0.8,0.2,1.1c0.2,0.6,0.6,0.9,1.2,0.9c0.6,0,1-0.3,1.2-0.9c0.1-0.3,0.2-0.6,0.2-1.1c0-0.4,0-0.8-0.2-1.1
		c-0.2-0.5-0.6-0.9-1.2-0.9C414.1,30.3,413.7,30.6,413.6,31.1z"/>
	<path class="st0" d="M201.5,51.1c-1-1.3-2-2.1-4.2-2.1c-2,0-3.2,0.9-3.2,2.5c0,1.8,1.5,2.6,4.1,3.2c3.9,0.8,5.9,2.3,5.9,5.8
		c0,2.9-1.9,5.5-6.6,5.5c-3.3,0-5.6-1-7.2-3.2l2.5-1.8c1.1,1.4,2.3,2.1,4.5,2.1c2.7,0,3.5-1.2,3.5-2.6c0-1.5-0.9-2.5-4.2-3.2
		c-3.7-0.8-5.8-2.6-5.8-5.9c0-2.9,1.9-5.3,6.4-5.3c3.1,0,5.2,1,6.6,3.2L201.5,51.1z"/>
	<path class="st0" d="M218.1,63.7c-0.9,1.7-2.6,2.4-5,2.4c-3.9,0-6.2-2.5-6.2-6.3v-1.9c0-4,2.3-6.3,6.3-6.3c2.1,0,3.9,0.8,4.9,2.3
		l-2.3,1.6c-0.5-0.8-1.4-1.3-2.6-1.3c-2.2,0-3.2,1.4-3.2,3.8v1.6c0,2.2,0.8,3.9,3.2,3.9c1.2,0,2.1-0.4,2.7-1.4L218.1,63.7z"/>
	<path class="st0" d="M220.5,46.5h3V53c0.6-0.8,1.6-1.5,3.4-1.5c2.9,0,5.1,1.5,5.1,5.5v8.8h-3v-8.4c0-2.5-1.1-3.2-2.7-3.2
		c-1.8,0-2.9,1.3-2.9,3.1v8.5h-3V46.5z"/>
	<path class="st0" d="M247,59.6c0,3.7-1.8,6.4-5.9,6.4c-3.9,0-6-2.5-6-6.4v-1.8c0-4.1,2.2-6.4,6-6.4c3.8,0,5.9,2.2,5.9,6.4V59.6z
		 M244,59.6v-1.6c0-2.4-1-3.8-3-3.8c-2,0-3,1.4-3,3.8v1.6c0,2.2,0.7,3.9,3,3.9C243.2,63.5,244,61.7,244,59.6z"/>
	<path class="st0" d="M261.4,59.6c0,3.7-1.8,6.4-5.9,6.4c-3.9,0-6-2.5-6-6.4v-1.8c0-4.1,2.2-6.4,6-6.4c3.8,0,5.9,2.2,5.9,6.4V59.6z
		 M258.5,59.6v-1.6c0-2.4-1-3.8-3-3.8c-2,0-3,1.4-3,3.8v1.6c0,2.2,0.7,3.9,3,3.9C257.6,63.5,258.5,61.7,258.5,59.6z"/>
	<path class="st0" d="M264.5,46.5h3v14.2c0,1.5,0.3,2.5,2.1,2.5v2.6c-3.6,0-5.1-1.2-5.1-4.4V46.5z"/>
	<path class="st0" d="M291.8,59.6c0,3.7-1.8,6.4-5.9,6.4c-3.9,0-6-2.5-6-6.4v-1.8c0-4.1,2.2-6.4,6-6.4c3.8,0,5.9,2.2,5.9,6.4V59.6z
		 M288.8,59.6v-1.6c0-2.4-1-3.8-3-3.8c-2,0-3,1.4-3,3.8v1.6c0,2.2,0.7,3.9,3,3.9C287.9,63.5,288.8,61.7,288.8,59.6z"/>
	<path class="st0" d="M295.5,51.8v-0.9c0-3.3,1.2-4.5,4.6-4.5h0.9v2.7h-0.6c-1.6,0-1.8,0.7-1.8,2.3v0.3h2.5v2.6h-2.5v11.4h-3V54.4
		h-1.8v-2.6H295.5z"/>
	<path class="st0" d="M323.5,46.5v2.8h-8.6v5.1h7.8v2.8h-7.8V63h8.6v2.8h-11.8V46.5H323.5z"/>
	<path class="st0" d="M326.5,46.5h3v14.2c0,1.5,0.3,2.5,2.1,2.5v2.6c-3.6,0-5.1-1.2-5.1-4.4V46.5z"/>
	<path class="st0" d="M345.5,63.7c-1,1.7-2.5,2.4-5,2.4c-4,0-6.1-2.6-6.1-6.3v-1.9c0-4.1,2-6.3,5.7-6.3c3.8,0,5.7,2.3,5.7,6.4v1.5
		h-8.4v0.1c0,2.2,0.8,3.9,3.1,3.9c1.7,0,2.3-0.5,2.9-1.4L345.5,63.7z M337.3,57.2h5.3c-0.1-2-1-3.1-2.7-3.1
		C338.3,54.1,337.5,55.3,337.3,57.2z"/>
	<path class="st0" d="M359.6,63.7c-0.9,1.7-2.6,2.4-5,2.4c-3.9,0-6.2-2.5-6.2-6.3v-1.9c0-4,2.3-6.3,6.3-6.3c2.1,0,3.9,0.8,4.9,2.3
		l-2.3,1.6c-0.5-0.8-1.4-1.3-2.6-1.3c-2.2,0-3.2,1.4-3.2,3.8v1.6c0,2.2,0.8,3.9,3.2,3.9c1.2,0,2.1-0.4,2.7-1.4L359.6,63.7z"/>
	<path class="st0" d="M360.9,51.8h1.8v-3.1h3v3.1h3v2.6h-3v6.4c0,1.6,0.3,2.3,1.8,2.3h1.1v2.7h-1.4c-3.4,0-4.6-1.1-4.6-4.5v-7h-1.8
		V51.8z"/>
	<path class="st0" d="M379.2,55.3c-0.4-0.6-1.1-1.1-2-1.1c-1.5,0-2.6,1.1-2.6,3.1v8.5h-3v-14h2.9V53c0.5-0.8,1.5-1.5,3.1-1.5
		c1.8,0,3,0.7,3.9,2.1L379.2,55.3z"/>
	<path class="st0" d="M383.7,46.5h3.3v3.1h-3.3V46.5z M383.8,51.8h3v14h-3V51.8z"/>
	<path class="st0" d="M401.5,63.7c-0.9,1.7-2.6,2.4-5,2.4c-3.9,0-6.2-2.5-6.2-6.3v-1.9c0-4,2.3-6.3,6.3-6.3c2.1,0,3.9,0.8,4.9,2.3
		l-2.3,1.6c-0.5-0.8-1.4-1.3-2.6-1.3c-2.2,0-3.2,1.4-3.2,3.8v1.6c0,2.2,0.8,3.9,3.2,3.9c1.2,0,2.1-0.4,2.7-1.4L401.5,63.7z"/>
	<path class="st0" d="M408.2,57.5h3v-1.2c0-1.8-0.7-2.2-2.8-2.2c-1.5,0-2.3,0.2-2.9,1.3l-2.2-1.5c1-1.7,2.5-2.3,5.3-2.3
		c3.6,0,5.5,1.1,5.5,4.8v9.4h-2.9v-1.3c-0.7,1.1-1.5,1.5-3.2,1.5c-3.1,0-5-1.6-5-4.4C403,58.7,405.2,57.5,408.2,57.5z M411.3,59.8
		h-2.8c-1.8,0-2.5,0.6-2.5,1.8c0,1.3,1,1.8,2.4,1.8c1.8,0,2.9-0.6,2.9-3V59.8z"/>
	<path class="st0" d="M417.9,46.5h3v14.2c0,1.5,0.3,2.5,2.1,2.5v2.6c-3.6,0-5.1-1.2-5.1-4.4V46.5z"/>
	<path class="st0" d="M195.5,87.5h3v-1.2c0-1.8-0.7-2.2-2.8-2.2c-1.5,0-2.3,0.2-2.9,1.3l-2.2-1.5c1-1.7,2.5-2.3,5.3-2.3
		c3.6,0,5.5,1.1,5.5,4.8v9.4h-2.9v-1.3c-0.7,1.1-1.5,1.5-3.2,1.5c-3.1,0-5-1.6-5-4.4C190.3,88.7,192.5,87.5,195.5,87.5z M198.5,89.8
		h-2.8c-1.8,0-2.5,0.6-2.5,1.8c0,1.3,1,1.8,2.4,1.8c1.8,0,2.9-0.6,2.9-3V89.8z"/>
	<path class="st0" d="M205.1,81.8h2.9V83c0.6-0.8,1.6-1.5,3.5-1.5c2.9,0,5.1,1.5,5.1,5.5v8.8h-3v-8.4c0-2.5-1.1-3.2-2.7-3.2
		c-1.8,0-2.9,1.3-2.9,3.1v8.5h-3V81.8z"/>
	<path class="st0" d="M228.7,76.5h3v19.3h-3v-1c-0.8,0.8-1.8,1.2-3.4,1.2c-3.7,0-5.6-2.7-5.6-6.3v-1.9c0-4,2.2-6.3,5.6-6.3
		c1.5,0,2.6,0.4,3.4,1.2V76.5z M228.7,89.6v-1.8c0-2.3-1-3.6-3-3.6c-2,0-3,1.4-3,3.8v1.6c0,2.2,0.8,3.9,3,3.9
		C228,93.5,228.7,91.7,228.7,89.6z"/>
	<path class="st0" d="M253.8,82.5c-0.5-2.4-1.8-3.4-3.9-3.4c-2.6,0-4,1.7-4,5.9v2.5c0,4.1,1.4,5.9,4,5.9c2.2,0,3.4-1.1,3.9-3.4h3.1
		c-0.6,4.3-3.2,6.2-7,6.2c-4.3,0-7.2-2.6-7.2-8.7v-2.5c0-6.1,2.9-8.7,7.2-8.7c3.8,0,6.4,2,7,6.2H253.8z"/>
	<path class="st0" d="M271.1,89.6c0,3.7-1.8,6.4-5.9,6.4c-3.9,0-6-2.5-6-6.4v-1.8c0-4.1,2.2-6.4,6-6.4c3.8,0,5.9,2.2,5.9,6.4V89.6z
		 M268.2,89.6v-1.6c0-2.4-1-3.8-3-3.8c-2,0-3,1.4-3,3.8v1.6c0,2.2,0.7,3.9,3,3.9C267.3,93.5,268.2,91.7,268.2,89.6z"/>
	<path class="st0" d="M274.3,81.8h2.9V83c0.6-0.8,1.6-1.5,3.3-1.5c1.8,0,3.2,0.7,4,2c0.9-1.3,2.4-2,4.1-2c3,0,4.8,1.8,4.8,5.5v8.8
		h-3v-8.4c0-2.3-1-3.2-2.5-3.2c-1.5,0-2.5,1.1-2.6,3v8.6h-3v-8.4c0-2.4-1-3.2-2.5-3.2c-1.5,0-2.6,1.2-2.6,3.1v8.5h-3V81.8z"/>
	<path class="st0" d="M309,89.7c0,3.6-1.8,6.3-5.5,6.3c-1.6,0-2.7-0.4-3.4-1.1v6.2h-3V81.8h3v1.1c0.7-0.9,1.8-1.4,3.4-1.4
		c3.4,0,5.5,2.3,5.5,6.3V89.7z M306,89.6v-1.6c0-2.4-1-3.8-3-3.8c-2,0-2.9,1.3-3,3.6v1.8c0,2.2,0.7,3.9,3,3.9
		C305.2,93.5,306,91.7,306,89.6z"/>
	<path class="st0" d="M323.6,95.8h-2.9v-1.3c-0.6,1-1.5,1.5-3.4,1.5c-2.9,0-5.1-1.5-5.1-5.5v-8.7h3v8.4c0,2.5,1.1,3.2,2.7,3.2
		c1.8,0,2.9-1.2,2.9-3.2v-8.5h3V95.8z"/>
	<path class="st0" d="M326.2,81.8h1.8v-3.1h3v3.1h3v2.6h-3v6.4c0,1.6,0.3,2.3,1.8,2.3h1.1v2.7h-1.4c-3.4,0-4.6-1.1-4.6-4.5v-7h-1.8
		V81.8z"/>
	<path class="st0" d="M347.5,93.7c-1,1.7-2.5,2.4-5,2.4c-4,0-6.1-2.6-6.1-6.3v-1.9c0-4.1,2-6.3,5.7-6.3c3.8,0,5.7,2.3,5.7,6.4v1.5
		h-8.4v0.1c0,2.2,0.8,3.9,3.1,3.9c1.7,0,2.3-0.5,2.9-1.4L347.5,93.7z M339.4,87.2h5.3c-0.1-2-1-3.1-2.7-3.1
		C340.3,84.1,339.5,85.3,339.4,87.2z"/>
	<path class="st0" d="M358.7,85.3c-0.4-0.6-1.1-1.1-2-1.1c-1.5,0-2.6,1.1-2.6,3.1v8.5h-3v-14h2.9V83c0.5-0.8,1.5-1.5,3.1-1.5
		c1.8,0,3,0.7,3.9,2.1L358.7,85.3z"/>
	<path class="st0" d="M382.8,76.5v2.8h-8.6v5.1h7.8v2.8h-7.8V93h8.6v2.8h-11.8V76.5H382.8z"/>
	<path class="st0" d="M385.8,81.8h2.9V83c0.6-0.8,1.6-1.5,3.5-1.5c2.9,0,5.1,1.5,5.1,5.5v8.8h-3v-8.4c0-2.5-1.1-3.2-2.7-3.2
		c-1.8,0-2.9,1.3-2.9,3.1v8.5h-3V81.8z"/>
	<path class="st0" d="M409.4,81.8h3v13.7c0,4.3-2.5,5.8-6.1,5.8c-2.5,0-4.1-0.6-5.2-2.4l2.1-1.5c0.6,0.9,1.5,1.4,3,1.4
		c2.2,0,3.2-1,3.2-3.2v-0.6c-0.8,0.8-1.9,1.2-3.4,1.2c-3.7,0-5.6-2.7-5.6-6.3v-1.9c0-4,2.2-6.3,5.6-6.3c1.5,0,2.6,0.4,3.4,1.2V81.8z
		 M409.4,89.6v-1.6c0-2.4-1-3.8-3-3.8c-2,0-3,1.4-3,3.8v1.6c0,2.2,0.8,3.9,3,3.9C408.7,93.5,409.4,91.7,409.4,89.6z"/>
	<path class="st0" d="M416.4,76.5h3.3v3.1h-3.3V76.5z M416.5,81.8h3v14h-3V81.8z"/>
	<path class="st0" d="M423.6,81.8h2.9V83c0.6-0.8,1.6-1.5,3.5-1.5c2.9,0,5.1,1.5,5.1,5.5v8.8h-3v-8.4c0-2.5-1.1-3.2-2.7-3.2
		c-1.8,0-2.9,1.3-2.9,3.1v8.5h-3V81.8z"/>
	<path class="st0" d="M449.4,93.7c-1,1.7-2.5,2.4-5,2.4c-4,0-6.1-2.6-6.1-6.3v-1.9c0-4.1,2-6.3,5.7-6.3c3.8,0,5.7,2.3,5.7,6.4v1.5
		h-8.4v0.1c0,2.2,0.8,3.9,3.1,3.9c1.7,0,2.3-0.5,2.9-1.4L449.4,93.7z M441.2,87.2h5.3c-0.1-2-1-3.1-2.7-3.1
		C442.2,84.1,441.4,85.3,441.2,87.2z"/>
	<path class="st0" d="M463.5,93.7c-1,1.7-2.5,2.4-5,2.4c-4,0-6.1-2.6-6.1-6.3v-1.9c0-4.1,2-6.3,5.7-6.3c3.8,0,5.7,2.3,5.7,6.4v1.5
		h-8.4v0.1c0,2.2,0.8,3.9,3.1,3.9c1.7,0,2.3-0.5,2.9-1.4L463.5,93.7z M455.4,87.2h5.3c-0.1-2-1-3.1-2.7-3.1
		C456.3,84.1,455.5,85.3,455.4,87.2z"/>
	<path class="st0" d="M474.7,85.3c-0.4-0.6-1.1-1.1-2-1.1c-1.5,0-2.6,1.1-2.6,3.1v8.5h-3v-14h2.9V83c0.5-0.8,1.5-1.5,3.1-1.5
		c1.8,0,3,0.7,3.9,2.1L474.7,85.3z"/>
	<path class="st0" d="M479.2,76.5h3.3v3.1h-3.3V76.5z M479.3,81.8h3v14h-3V81.8z"/>
	<path class="st0" d="M486.4,81.8h2.9V83c0.6-0.8,1.6-1.5,3.5-1.5c2.9,0,5.1,1.5,5.1,5.5v8.8h-3v-8.4c0-2.5-1.1-3.2-2.7-3.2
		c-1.8,0-2.9,1.3-2.9,3.1v8.5h-3V81.8z"/>
	<path class="st0" d="M510,81.8h3v13.7c0,4.3-2.5,5.8-6.1,5.8c-2.5,0-4.1-0.6-5.2-2.4l2.1-1.5c0.6,0.9,1.5,1.4,3,1.4
		c2.2,0,3.2-1,3.2-3.2v-0.6c-0.8,0.8-1.9,1.2-3.4,1.2c-3.7,0-5.6-2.7-5.6-6.3v-1.9c0-4,2.2-6.3,5.6-6.3c1.5,0,2.6,0.4,3.4,1.2V81.8z
		 M510,89.6v-1.6c0-2.4-1-3.8-3-3.8c-2,0-3,1.4-3,3.8v1.6c0,2.2,0.8,3.9,3,3.9C509.3,93.5,510,91.7,510,89.6z"/>
</g>
<g>
	
		<rect x="170.3" y="19.9" transform="matrix(1 -1.431140e-03 1.431140e-03 1 -8.709784e-02 0.2449)" class="st1" width="1.5" height="82.2"/>
</g>
<g>
	<g>
		<g>
			<path class="st1" d="M135.5,97.3L135.5,97.3c-1.3,0-2.4,1.1-2.4,2.4c0,1.3,1.1,2.4,2.4,2.4c1.3,0,2.3-1,2.3-2.4
				C137.8,98.4,136.8,97.3,135.5,97.3z M135.5,101.7c-1.1,0-1.9-0.9-1.9-2c0-1.1,0.9-2,1.9-2h0c1.1,0,1.9,0.9,1.9,2
				C137.4,100.8,136.6,101.7,135.5,101.7z"/>
			<path class="st1" d="M135.9,99.8L135.9,99.8c0.3-0.1,0.5-0.3,0.5-0.7c0-0.3-0.1-0.4-0.2-0.5c-0.2-0.1-0.4-0.2-0.8-0.2
				c-0.3,0-0.5,0-0.7,0.1v2.6h0.4V100h0.3c0.3,0,0.5,0.1,0.6,0.5c0.1,0.3,0.1,0.6,0.2,0.7h0.4c0-0.1-0.1-0.2-0.2-0.7
				C136.3,100.1,136.2,99.8,135.9,99.8z M135.4,99.6h-0.3v-0.9c0.1,0,0.2,0,0.3,0c0.5,0,0.6,0.2,0.6,0.5
				C136,99.5,135.7,99.6,135.4,99.6z"/>
		</g>
	</g>
	<g>
		<path class="st1" d="M60.5,20c-0.1,0-0.1,0-0.2,0c0.1,0,0.2,0,0.3,0C60.6,20,60.6,20,60.5,20z"/>
		<g>
			<path class="st1" d="M71.5,46v20.7h11.1l1.2-6.2h5c-1.8,9.5-11.2,16-23.2,16c-0.8,0-1.6,0-2.5-0.1c-6.6-0.5-12.7-2.6-17.1-6
				c-4.9-3.7-7.4-8.6-7.4-14.3c0-6.1,2.6-11.7,7.3-15.9c4.5-4,10.4-6.3,16.8-6.6c0.4,0,0.8,0,1.2,0c7.5,0,15.5,2.9,21.4,7.8
				c0.3,0.3,0.4,0.3,0.4,0.4c0,0,0.1,0.1,0.4,0.3l0.2,0.1l0.2,0l12.5,0V20H86.1v6.4c-5.4-3.5-14.7-7-25.6-7l-0.2,0
				c-11.8,0-23.3,4.9-31.5,13.2c-6.7,6.8-10.4,15.2-10.3,23.5c0.1,9,4.4,17.3,12.2,23.5c7.4,5.9,17.4,9.3,27.5,9.3
				c1.2,0,2.5-0.1,3.7-0.2c10-0.8,18.8-3.1,25.1-6.4l0,2.8h13.7V60.4h4.7v28.7h-7.1v12.9h31.9V89.2h-7.1V60.4h16.1l1.1,6.2h11.1V46
				H71.5z M60.5,20c0,0,0.1,0,0.1,0c-0.1,0-0.2,0-0.3,0C60.4,20,60.5,20,60.5,20z"/>
		</g>
	</g>
</g>
</svg>
