<?xml version="1.0" encoding="utf-8"?>
<!-- Generator: Adobe Illustrator 19.2.1, SVG Export Plug-In . SVG Version: 6.00 Build 0)  -->
<svg version="1.1" id="layer" xmlns="http://www.w3.org/2000/svg" xmlns:xlink="http://www.w3.org/1999/xlink" x="0px" y="0px"
	 viewBox="0 0 652 652" style="enable-background:new 0 0 652 652;" xml:space="preserve">
<style type="text/css">
	.st0{fill:#901588;}
</style>
<g id="Leidos-logo-horz-uv-mid-rgb">
	<polygon class="st0" points="214.8,282 238.1,276.6 238.1,390.3 214.8,390.3 	"/>
	<path class="st0" d="M323.5,377.3c-7.5,9.5-19.8,14.9-31.9,14.9c-23.4,0-42-15.5-42-39.7c0-24.1,18.7-39.7,42-39.7
		c21.8,0,35.5,15.5,35.5,39.7v7.3h-54.2c1.9,8.9,8.6,14.6,17.6,14.6c7.6,0,12.8-3.9,16.7-9.2L323.5,377.3L323.5,377.3z M303.8,343.9
		c0.2-7.8-5.9-14.3-14.3-14.3c-10.2,0-15.9,7-16.5,14.3H303.8L303.8,343.9z"/>
	<path class="st0" d="M456.6,390.3h-21.5v-10h-0.3c-3.6,5.5-12.6,11.8-23.2,11.8c-22.4,0-37.2-16.2-37.2-39.1
		c0-21,13.1-40.3,34.6-40.3c9.6,0,18.7,2.6,24,10h0.3V282l23.4-5.4L456.6,390.3L456.6,390.3z M416.5,333.3
		c-11.7,0-18.7,7.8-18.7,19.1s7,19.1,18.7,19.1s18.7-7.8,18.7-19.1S428.1,333.3,416.5,333.3z"/>
	<path class="st0" d="M508.5,312.8c23.3,0,42,15.5,42,39.7c0,24.1-18.7,39.7-42,39.7s-42.1-15.5-42.1-39.7
		C466.4,328.4,485.1,312.8,508.5,312.8z M508.5,371.6c11.6,0,18.7-7.8,18.7-19.1c0-11.4-7-19.1-18.7-19.1s-18.7,7.8-18.7,19.1
		C489.8,363.9,496.8,371.6,508.5,371.6z"/>
	<path class="st0" d="M603.1,336.9c-3.4-4.2-7.9-6.4-13.5-6.4c-3.9,0-8.5,1.7-8.5,6.2c0,11.2,39.4,1.7,39.4,30.5
		c0,19.3-18.7,24.9-34.9,24.9c-10.6,0-22.2-2.6-29.7-10.3l14.2-15.7c4.4,5.3,9.5,8.3,16.5,8.3c5.3,0,10.6-1.4,10.6-5.4
		c0-12.2-39.4-1.9-39.4-30.7c0-17.7,15.9-25.5,31.8-25.5c10,0,21,2.5,28,10L603.1,336.9L603.1,336.9z"/>
	<rect x="339.7" y="314.7" class="st0" width="23.3" height="75.7"/>
	<rect x="339.7" y="282.1" class="st0" width="23.3" height="19.4"/>
	<polygon class="st0" points="101.5,335.3 181.3,286.6 79.3,319.7 	"/>
	<polygon class="st0" points="60.5,250.1 52.4,274.7 177.4,274.7 	"/>
	<polygon class="st0" points="33.7,330.7 71.2,318.5 44.1,299.5 	"/>
	<polygon class="st0" points="20.4,278.4 42.2,293.7 47.3,278.4 	"/>
	<polygon class="st0" points="194.7,278.4 51.2,278.4 45.3,295.9 75.5,317.1 	"/>
</g>
</svg>
